HIERARCHY
ROOT Hips
{
	OFFSET 0.000000 0.000000 0.000000
	CHANNELS 6 Xposition Yposition Zposition Zrotation Yrotation Xrotation 
	JOINT Spine1
	{
		OFFSET -0.013727 5.003763 -0.053727
		CHANNELS 3 Zrotation Yrotation Xrotation
		JOINT Spine2
		{
			OFFSET -0.000000 7.125302 -0.029825
			CHANNELS 3 Zrotation Yrotation Xrotation
			JOINT Chest
			{
				OFFSET -0.000001 7.550064 -0.815971
				CHANNELS 3 Zrotation Yrotation Xrotation
				JOINT Neck1
				{
					OFFSET -0.181677 26.311296 -0.553348
					CHANNELS 3 Zrotation Yrotation Xrotation
					JOINT Neck2
					{
						OFFSET -0.000003 7.709398 2.302586
						CHANNELS 3 Zrotation Yrotation Xrotation
						JOINT Head
						{
							OFFSET -0.000005 6.128913 1.953708
							CHANNELS 3 Zrotation Yrotation Xrotation
							JOINT HeadEnd
							{
								OFFSET 0.003598 16.065399 -1.835379
								CHANNELS 3 Zrotation Yrotation Xrotation
								End Site
								{
									OFFSET 0.000000 0.000000 0.000000
								}
							}
							JOINT Jaw
							{
								OFFSET 0.002637 0.475591 3.094940
								CHANNELS 3 Zrotation Yrotation Xrotation
								End Site
								{
									OFFSET 0.000000 0.000000 0.000000
								}
							}
							JOINT LeftEye
							{
								OFFSET 3.206380 5.380207 7.586883
								CHANNELS 3 Zrotation Yrotation Xrotation
								End Site
								{
									OFFSET 0.000000 0.000000 0.000000
								}
							}
							JOINT RightEye
							{
								OFFSET -3.222440 5.361866 7.558233
								CHANNELS 3 Zrotation Yrotation Xrotation
								End Site
								{
									OFFSET 0.000000 0.000000 0.000000
								}
							}
						}
					}
				}
				JOINT LeftShoulder
				{
					OFFSET 1.621652 23.237164 5.113413
					CHANNELS 3 Zrotation Yrotation Xrotation
					JOINT LeftArm
					{
						OFFSET 14.919845 -0.000000 -5.502326
						CHANNELS 3 Zrotation Yrotation Xrotation
						JOINT LeftForeArm
						{
							OFFSET 28.739309 0.000003 -0.002588
							CHANNELS 3 Zrotation Yrotation Xrotation
							JOINT LeftHand
							{
								OFFSET 27.093979 -0.000003 0.002608
								CHANNELS 3 Zrotation Yrotation Xrotation
								JOINT LeftHandThumb1
								{
									OFFSET 2.276480 -1.392046 3.191413
									CHANNELS 3 Zrotation Yrotation Xrotation
									JOINT LeftHandThumb2
									{
										OFFSET 4.012841 -1.828125 1.641656
										CHANNELS 3 Zrotation Yrotation Xrotation
										JOINT LeftHandThumb3
										{
											OFFSET 2.798517 0.000001 -0.000003
											CHANNELS 3 Zrotation Yrotation Xrotation
											JOINT LeftHandThumbEnd
											{
												OFFSET 3.180790 -0.000002 0.000003
												CHANNELS 3 Zrotation Yrotation Xrotation
												End Site
												{
													OFFSET 0.000000 0.000000 0.000000
												}
											}
										}
									}
								}
								JOINT LeftHandIndex1
								{
									OFFSET 3.247552 -0.531998 2.296169
									CHANNELS 3 Zrotation Yrotation Xrotation
									JOINT LeftHandIndex2
									{
										OFFSET 6.364579 0.012062 0.178600
										CHANNELS 3 Zrotation Yrotation Xrotation
										JOINT LeftHandIndex3
										{
											OFFSET 3.662367 0.000001 -0.000000
											CHANNELS 3 Zrotation Yrotation Xrotation
											JOINT LeftHandIndex4
											{
												OFFSET 2.329242 0.000002 0.000004
												CHANNELS 3 Zrotation Yrotation Xrotation
												JOINT LeftHandIndexEnd
												{
													OFFSET 2.759619 -0.180539 -0.113024
													CHANNELS 3 Zrotation Yrotation Xrotation
													End Site
													{
														OFFSET 0.000000 0.000000 0.000000
													}
												}
											}
										}
									}
								}
								JOINT LeftHandMiddle1
								{
									OFFSET 3.163499 0.240982 1.000332
									CHANNELS 3 Zrotation Yrotation Xrotation
									JOINT LeftHandMiddle2
									{
										OFFSET 6.190778 -0.259276 -1.002549
										CHANNELS 3 Zrotation Yrotation Xrotation
										JOINT LeftHandMiddle3
										{
											OFFSET 4.356523 -0.000006 0.000001
											CHANNELS 3 Zrotation Yrotation Xrotation
											JOINT LeftHandMiddle4
											{
												OFFSET 2.996875 -0.000007 0.000001
												CHANNELS 3 Zrotation Yrotation Xrotation
												JOINT LeftHandMiddleEnd
												{
													OFFSET 2.304294 -0.294571 -0.031740
													CHANNELS 3 Zrotation Yrotation Xrotation
													End Site
													{
														OFFSET 0.000000 0.000000 0.000000
													}
												}
											}
										}
									}
								}
								JOINT LeftHandRing1
								{
									OFFSET 2.882642 -0.053650 -0.322543
									CHANNELS 3 Zrotation Yrotation Xrotation
									JOINT LeftHandRing2
									{
										OFFSET 5.854542 -0.486203 -1.373841
										CHANNELS 3 Zrotation Yrotation Xrotation
										JOINT LeftHandRing3
										{
											OFFSET 4.350581 0.000001 0.000004
											CHANNELS 3 Zrotation Yrotation Xrotation
											JOINT LeftHandRing4
											{
												OFFSET 2.651324 0.000007 0.000003
												CHANNELS 3 Zrotation Yrotation Xrotation
												JOINT LeftHandRingEnd
												{
													OFFSET 1.936111 0.077684 -0.000070
													CHANNELS 3 Zrotation Yrotation Xrotation
													End Site
													{
														OFFSET 0.000000 0.000000 0.000000
													}
												}
											}
										}
									}
								}
								JOINT LeftHandPinky1
								{
									OFFSET 2.865498 -0.310004 -1.600379
									CHANNELS 3 Zrotation Yrotation Xrotation
									JOINT LeftHandPinky2
									{
										OFFSET 5.087854 -1.331141 -1.771231
										CHANNELS 3 Zrotation Yrotation Xrotation
										JOINT LeftHandPinky3
										{
											OFFSET 3.070975 0.000003 0.000001
											CHANNELS 3 Zrotation Yrotation Xrotation
											JOINT LeftHandPinky4
											{
												OFFSET 1.549667 0.000000 0.000001
												CHANNELS 3 Zrotation Yrotation Xrotation
												JOINT LeftHandPinkyEnd
												{
													OFFSET 1.944895 -0.157802 0.057219
													CHANNELS 3 Zrotation Yrotation Xrotation
													End Site
													{
														OFFSET 0.000000 0.000000 0.000000
													}
												}
											}
										}
									}
								}
							}
						}
					}
				}
				JOINT RightShoulder
				{
					OFFSET -1.380118 23.180307 5.214158
					CHANNELS 3 Zrotation Yrotation Xrotation
					JOINT RightArm
					{
						OFFSET -15.037197 0.000012 -5.545604
						CHANNELS 3 Zrotation Yrotation Xrotation
						JOINT RightForeArm
						{
							OFFSET -28.736639 0.000003 -0.002598
							CHANNELS 3 Zrotation Yrotation Xrotation
							JOINT RightHand
							{
								OFFSET -27.133617 0.000000 0.002612
								CHANNELS 3 Zrotation Yrotation Xrotation
								JOINT RightHandThumb1
								{
									OFFSET -2.274037 -1.383990 3.163128
									CHANNELS 3 Zrotation Yrotation Xrotation
									JOINT RightHandThumb2
									{
										OFFSET -4.011428 -1.827468 1.640914
										CHANNELS 3 Zrotation Yrotation Xrotation
										JOINT RightHandThumb3
										{
											OFFSET -2.794934 -0.000003 -0.000003
											CHANNELS 3 Zrotation Yrotation Xrotation
											JOINT RightHandThumbEnd
											{
												OFFSET -3.183855 0.000003 0.000000
												CHANNELS 3 Zrotation Yrotation Xrotation
												End Site
												{
													OFFSET 0.000000 0.000000 0.000000
												}
											}
										}
									}
								}
								JOINT RightHandIndex1
								{
									OFFSET -3.253269 -0.520059 2.282866
									CHANNELS 3 Zrotation Yrotation Xrotation
									JOINT RightHandIndex2
									{
										OFFSET -6.341917 0.012473 0.178265
										CHANNELS 3 Zrotation Yrotation Xrotation
										JOINT RightHandIndex3
										{
											OFFSET -3.654875 -0.000009 -0.000000
											CHANNELS 3 Zrotation Yrotation Xrotation
											JOINT RightHandIndex4
											{
												OFFSET -2.327586 0.000000 0.000000
												CHANNELS 3 Zrotation Yrotation Xrotation
												JOINT RightHandIndexEnd
												{
													OFFSET -2.761789 -0.180657 -0.113079
													CHANNELS 3 Zrotation Yrotation Xrotation
													End Site
													{
														OFFSET 0.000000 0.000000 0.000000
													}
												}
											}
										}
									}
								}
								JOINT RightHandMiddle1
								{
									OFFSET -3.168107 0.246593 1.001030
									CHANNELS 3 Zrotation Yrotation Xrotation
									JOINT RightHandMiddle2
									{
										OFFSET -6.180830 -0.258836 -1.000896
										CHANNELS 3 Zrotation Yrotation Xrotation
										JOINT RightHandMiddle3
										{
											OFFSET -4.348904 -0.000001 -0.000001
											CHANNELS 3 Zrotation Yrotation Xrotation
											JOINT RightHandMiddle4
											{
												OFFSET -3.000243 -0.000004 -0.000002
												CHANNELS 3 Zrotation Yrotation Xrotation
												JOINT RightHandMiddleEnd
												{
													OFFSET -2.302518 -0.294371 -0.031706
													CHANNELS 3 Zrotation Yrotation Xrotation
													End Site
													{
														OFFSET 0.000000 0.000000 0.000000
													}
												}
											}
										}
									}
								}
								JOINT RightHandRing1
								{
									OFFSET -2.885693 -0.067952 -0.308858
									CHANNELS 3 Zrotation Yrotation Xrotation
									JOINT RightHandRing2
									{
										OFFSET -5.854196 -0.486132 -1.373732
										CHANNELS 3 Zrotation Yrotation Xrotation
										JOINT RightHandRing3
										{
											OFFSET -4.338814 -0.000003 -0.000000
											CHANNELS 3 Zrotation Yrotation Xrotation
											JOINT RightHandRing4
											{
												OFFSET -2.654906 -0.000004 0.000004
												CHANNELS 3 Zrotation Yrotation Xrotation
												JOINT RightHandRingEnd
												{
													OFFSET -1.933570 0.077523 -0.000052
													CHANNELS 3 Zrotation Yrotation Xrotation
													End Site
													{
														OFFSET 0.000000 0.000000 0.000000
													}
												}
											}
										}
									}
								}
								JOINT RightHandPinky1
								{
									OFFSET -2.866429 -0.342798 -1.584145
									CHANNELS 3 Zrotation Yrotation Xrotation
									JOINT RightHandPinky2
									{
										OFFSET -5.091370 -1.332054 -1.772385
										CHANNELS 3 Zrotation Yrotation Xrotation
										JOINT RightHandPinky3
										{
											OFFSET -3.062666 -0.000006 0.000000
											CHANNELS 3 Zrotation Yrotation Xrotation
											JOINT RightHandPinky4
											{
												OFFSET -1.546527 0.000005 -0.000003
												CHANNELS 3 Zrotation Yrotation Xrotation
												JOINT RightHandPinkyEnd
												{
													OFFSET -1.945122 -0.157721 0.057211
													CHANNELS 3 Zrotation Yrotation Xrotation
													End Site
													{
														OFFSET 0.000000 0.000000 0.000000
													}
												}
											}
										}
									}
								}
							}
						}
					}
				}
			}
		}
	}
	JOINT LeftLeg
	{
		OFFSET 10.043214 -8.434526 2.595655
		CHANNELS 3 Zrotation Yrotation Xrotation
		JOINT LeftShin
		{
			OFFSET -0.000001 -43.221752 -0.802913
			CHANNELS 3 Zrotation Yrotation Xrotation
			JOINT LeftFoot
			{
				OFFSET 0.000001 -42.155094 -3.481523
				CHANNELS 3 Zrotation Yrotation Xrotation
				JOINT LeftToeBase
				{
					OFFSET -0.000000 -5.059475 13.231529
					CHANNELS 3 Zrotation Yrotation Xrotation
					JOINT LeftToeEnd
					{
						OFFSET -0.009607 -1.647615 6.513017
						CHANNELS 3 Zrotation Yrotation Xrotation
						End Site
						{
							OFFSET 0.000000 0.000000 0.000000
						}
					}
				}
			}
		}
	}
	JOINT RightLeg
	{
		OFFSET -10.047277 -8.295259 2.620317
		CHANNELS 3 Zrotation Yrotation Xrotation
		JOINT RightShin
		{
			OFFSET 0.000001 -43.362209 -0.805556
			CHANNELS 3 Zrotation Yrotation Xrotation
			JOINT RightFoot
			{
				OFFSET 0.000002 -42.117393 -3.478399
				CHANNELS 3 Zrotation Yrotation Xrotation
				JOINT RightToeBase
				{
					OFFSET -0.000001 -5.079609 13.284196
					CHANNELS 3 Zrotation Yrotation Xrotation
					JOINT RightToeEnd
					{
						OFFSET 0.009532 -1.634383 6.460591
						CHANNELS 3 Zrotation Yrotation Xrotation
						End Site
						{
							OFFSET 0.000000 0.000000 0.000000
						}
					}
				}
			}
		}
	}
}
MOTION
Frames: 4
Frame Time: 0.033333
7.734451 95.586456 -19.305771 -0.278186 5.867407 -1.353394 -0.233372 -0.000567 16.368217 -0.454058 0.542302 1.294509 0.398174 -1.988432 30.996944 -4.350914 7.430827 40.584641 -0.519503 0.431223 -3.490309 -6.094007 0.092751 15.783319 0.000078 -0.000022 0.000006 0.105994 0.053535 -0.227329 1.257685 -3.567595 -11.199956 -1.047001 3.721383 -11.161523 24.500210 -22.360273 13.441477 -88.284599 -26.957952 -3.314645 178.898163 -42.038139 -178.950348 7.915659 -3.744191 -2.847279 -5.882100 9.861278 0.702591 -10.936859 -0.360574 7.156199 0.000002 8.774813 -0.000000 -16.341833 18.103029 5.560246 -1.844030 2.498502 -2.507275 -10.163590 4.678941 4.621106 -20.975992 -0.000002 0.000003 -21.226254 2.451694 -3.593992 0.000001 -0.000006 -0.000000 -1.362680 2.240796 -0.746322 -21.334887 0.584909 3.008322 -13.821197 -0.000002 0.000002 -23.887131 -0.249076 -0.839480 -60.032345 2.792302 -1.712579 -0.294027 1.679685 0.833255 -14.218194 0.093215 1.300580 -34.212006 -0.287561 0.967170 -20.033180 0.964536 1.212841 0.000000 -0.000000 -0.000000 -3.440387 0.788232 0.501656 -15.928167 -3.167304 2.999704 -6.338814 -0.000000 0.000002 -18.123415 3.648176 -4.905660 -0.000004 0.000001 -0.000002 -13.286124 26.461132 13.950647 89.012070 28.001616 -4.029113 179.003922 43.287262 178.866684 -9.891110 12.047606 6.947128 2.243540 -5.255031 -3.180155 14.282875 -0.826593 6.952498 -0.000004 -12.690587 0.000002 16.715090 -16.914337 2.149858 1.665663 -1.955920 -2.878296 4.727795 -4.170582 4.993919 11.020510 0.000002 -0.000000 12.109032 -3.735709 -2.866779 0.000001 0.000000 0.000000 1.291984 -1.928547 -1.498088 14.800111 0.567466 3.865604 14.242551 -1.341734 -6.660648 19.631939 0.143925 -0.648241 49.641804 -1.305732 -5.618784 0.353028 -1.511149 -0.031940 20.222769 3.684306 2.316629 18.787247 0.000002 0.000001 10.751610 -0.479869 1.397905 0.000000 0.000000 0.000000 3.273803 0.305947 -0.580110 21.486792 11.830361 2.266133 8.162916 0.000000 0.000000 18.399054 -3.798979 -4.940564 0.000003 0.000001 -0.000001 4.252099 14.727596 -27.302677 -0.264658 -0.351532 21.934994 -6.477690 -11.266555 8.137892 1.613259 -2.035873 -1.883346 -0.000000 0.000000 0.000002 -10.800687 -11.112612 -16.910225 0.191012 0.258794 31.393095 10.867670 1.805193 -10.448059 -1.390157 1.170229 -2.024635 -0.000000 -0.000000 -0.000001 
7.099838 95.676323 -19.017273 -0.423213 5.497718 -2.301856 -0.196790 0.040208 15.665719 -0.454599 0.453726 0.926561 0.222446 -2.103498 30.345139 -4.178822 7.615909 40.124519 -0.584610 0.676383 -3.470455 -6.365726 0.584468 16.021257 0.000077 -0.000023 0.000006 0.081356 0.044660 -0.212368 1.205783 -3.585706 -11.240402 -1.034351 3.717102 -11.219078 24.526056 -22.508846 13.210730 -87.904213 -26.994135 -5.708584 178.872482 -41.516411 -178.971649 6.640165 -3.787361 -3.403310 -5.882100 9.861278 0.702590 -10.936858 -0.360575 7.156197 0.000002 8.774814 -0.000001 -16.374128 18.065643 5.616135 -1.844031 2.498503 -2.507276 -10.163590 4.678940 4.621104 -20.975992 -0.000004 0.000001 -21.226248 2.451692 -3.593994 0.000001 -0.000006 -0.000001 -1.362682 2.240797 -0.746323 -21.334885 0.584907 3.008321 -13.821197 -0.000002 0.000002 -23.887129 -0.249078 -0.839481 -60.363262 2.766064 -1.717760 -0.294027 1.679685 0.833255 -14.218192 0.093213 1.300579 -34.211998 -0.287564 0.967169 -20.033176 0.964535 1.212842 0.000000 0.000000 0.000000 -3.440384 0.788232 0.501656 -15.928167 -3.167306 2.999703 -6.338817 0.000000 0.000001 -18.123411 3.648176 -4.905661 -0.000003 0.000001 -0.000002 -13.702738 26.721697 13.819298 90.550133 28.645212 -3.649464 178.793854 43.685753 178.739685 -9.772930 11.879799 5.383873 2.243540 -5.255033 -3.180155 14.282877 -0.826594 6.952496 -0.000002 -12.690591 -0.000000 16.662949 -16.940554 2.208835 1.665664 -1.955920 -2.878295 4.727794 -4.170583 4.993919 11.020512 0.000002 -0.000000 12.109035 -3.735712 -2.866779 0.000001 0.000000 0.000001 1.291984 -1.928546 -1.498088 14.800111 0.567466 3.865603 14.242551 -1.341736 -6.660648 19.631939 0.143924 -0.648244 49.751293 -1.306069 -5.604383 0.353028 -1.511150 -0.031940 20.222773 3.684306 2.316629 18.787245 0.000002 -0.000001 10.751610 -0.479868 1.397905 -0.000002 0.000000 0.000002 3.273803 0.305946 -0.580109 21.486792 11.830363 2.266133 8.162916 -0.000001 -0.000001 18.399055 -3.798980 -4.940568 0.000003 -0.000000 -0.000003 5.155138 15.146667 -25.774231 -0.262041 -0.357141 21.486639 -6.858484 -11.252189 8.219473 1.620986 -2.022380 -2.059772 -0.000000 0.000000 0.000002 -10.401729 -11.205382 -15.665458 0.179570 0.246831 31.098648 10.398646 2.263424 -10.620635 -1.389971 1.171690 -2.069692 -0.000000 -0.000000 -0.000001 
6.450208 95.782890 -18.687599 -0.566246 5.189869 -3.131638 -0.127117 0.077755 14.943548 -0.450337 0.325514 0.557348 0.090758 -2.205339 29.705290 -3.850419 7.585777 39.473080 -0.659420 0.950280 -3.452222 -6.541473 1.061131 16.097334 0.000076 -0.000022 0.000006 0.071393 0.037181 -0.206619 1.157412 -3.600372 -11.267501 -1.024690 3.711192 -11.258420 24.586628 -22.663044 12.891735 -87.581985 -27.072475 -7.877634 178.965652 -41.114262 -179.063583 5.508703 -3.845993 -4.340834 -5.882100 9.861280 0.702589 -10.936857 -0.360576 7.156197 -0.000000 8.774816 -0.000002 -16.419014 18.035528 5.648812 -1.844030 2.498503 -2.507276 -10.163590 4.678940 4.621104 -20.975992 -0.000003 0.000002 -21.226255 2.451693 -3.593995 0.000001 -0.000006 -0.000000 -1.362680 2.240796 -0.746323 -21.334887 0.584909 3.008320 -13.821193 -0.000003 0.000002 -23.887129 -0.249079 -0.839481 -60.601227 2.745461 -1.705694 -0.294026 1.679688 0.833255 -14.218194 0.093214 1.300579 -34.212002 -0.287564 0.967171 -20.033180 0.964535 1.212842 0.000000 0.000000 0.000000 -3.440386 0.788232 0.501655 -15.928171 -3.167308 2.999704 -6.338815 -0.000001 0.000001 -18.123411 3.648178 -4.905660 -0.000003 0.000000 -0.000001 -13.822787 26.927048 13.835950 91.653862 29.095724 -3.353606 178.449249 43.850815 178.497070 -9.710649 11.724170 3.695867 2.243539 -5.255032 -3.180155 14.282875 -0.826592 6.952495 -0.000002 -12.690592 -0.000000 16.662729 -16.965437 2.242165 1.665664 -1.955921 -2.878297 4.727794 -4.170582 4.993917 11.020511 0.000002 -0.000002 12.109028 -3.735710 -2.866779 0.000001 -0.000001 -0.000000 1.291984 -1.928547 -1.498088 14.800111 0.567469 3.865604 14.242553 -1.341736 -6.660649 19.631929 0.143927 -0.648242 49.908394 -1.298921 -5.608743 0.353029 -1.511149 -0.031940 20.222769 3.684306 2.316629 18.787245 0.000005 0.000001 10.751610 -0.479868 1.397905 0.000003 0.000001 0.000003 3.273803 0.305946 -0.580110 21.486788 11.830365 2.266134 8.162916 0.000000 -0.000001 18.399048 -3.798980 -4.940566 0.000003 0.000000 -0.000003 6.132350 15.535302 -24.314899 -0.258002 -0.349783 20.964596 -7.389635 -11.338938 8.482793 1.630490 -2.003040 -2.219321 -0.000000 0.000000 0.000002 -9.977308 -11.315514 -14.476378 0.155443 0.230038 30.730829 9.938200 2.676169 -10.784544 -1.390747 1.172961 -2.081522 -0.000000 -0.000000 -0.000001 
5.818844 95.895493 -18.361279 -0.706915 4.906990 -3.843574 -0.032340 0.095149 14.207760 -0.469123 0.228298 0.197901 0.013238 -2.319728 29.053276 -3.443472 7.347027 38.617344 -0.690751 1.243091 -3.432721 -6.757061 1.579647 15.953663 0.000077 -0.000023 0.000006 0.079312 0.031968 -0.189448 1.117305 -3.614276 -11.260541 -0.976272 3.710351 -11.266045 24.602978 -22.847805 12.613418 -87.160927 -27.243183 -9.816109 179.017776 -40.676052 -179.101913 4.455330 -3.945410 -5.415448 -5.882101 9.861279 0.702589 -10.936860 -0.360575 7.156196 0.000001 8.774813 -0.000001 -16.413998 18.052437 5.708661 -1.844032 2.498502 -2.507277 -10.163591 4.678940 4.621103 -20.975996 -0.000004 0.000002 -21.226250 2.451692 -3.593995 0.000001 -0.000006 -0.000001 -1.362681 2.240797 -0.746323 -21.334887 0.584910 3.008318 -13.821195 -0.000003 0.000002 -23.887129 -0.249079 -0.839483 -60.789494 2.721370 -1.689163 -0.294026 1.679685 0.833255 -14.218194 0.093215 1.300579 -34.211998 -0.287564 0.967168 -20.033178 0.964534 1.212840 0.000000 0.000000 0.000001 -3.440384 0.788232 0.501656 -15.928169 -3.167305 2.999703 -6.338815 -0.000002 0.000000 -18.123413 3.648177 -4.905663 -0.000003 0.000001 -0.000001 -13.699195 27.034403 13.946575 92.353165 29.450506 -2.934280 178.177933 43.820927 178.382538 -9.587710 11.558668 1.949830 2.243540 -5.255032 -3.180155 14.282875 -0.826593 6.952497 -0.000002 -12.690590 0.000001 16.646847 -16.987818 2.284850 1.665664 -1.955920 -2.878297 4.727795 -4.170582 4.993919 11.020511 0.000004 -0.000001 12.109029 -3.735711 -2.866779 -0.000000 -0.000000 0.000000 1.291985 -1.928547 -1.498088 14.800111 0.567467 3.865604 14.242550 -1.341733 -6.660648 19.631937 0.143926 -0.648242 49.992611 -1.234750 -5.604937 0.353029 -1.511147 -0.031941 20.222767 3.684306 2.316628 18.787245 0.000005 0.000002 10.751610 -0.479867 1.397904 0.000001 0.000001 0.000000 3.273804 0.305946 -0.580111 21.486788 11.830360 2.266130 8.162915 0.000001 0.000001 18.399050 -3.798979 -4.940565 0.000004 0.000000 0.000000 7.023072 15.893975 -22.963856 -0.267673 -0.370757 20.386316 -7.849536 -11.371797 8.767416 1.635980 -1.983152 -2.381625 0.000000 -0.000000 0.000002 -9.534356 -11.400381 -13.382678 0.139712 0.216828 30.323843 9.472804 2.991504 -10.947286 -1.392071 1.169241 -2.107236 0.000000 0.000000 -0.000001 
